<?xml version="1.0" standalone="no"?>
<!DOCTYPE svg PUBLIC "-//W3C//DTD SVG 20010904//EN"
 "http://www.w3.org/TR/2001/REC-SVG-20010904/DTD/svg10.dtd">
<svg version="1.0" xmlns="http://www.w3.org/2000/svg"
 width="177.000000pt" height="183.000000pt" viewBox="0 0 177.000000 183.000000"
 preserveAspectRatio="xMidYMid meet">

<g transform="translate(0.000000,183.000000) scale(0.100000,-0.100000)"
fill="#000000" stroke="none">
<path d="M160 1770 c0 -25 -4 -30 -24 -30 -21 0 -25 -6 -28 -32 -3 -29 -6 -33
-30 -31 -25 2 -28 -2 -28 -28 0 -24 -4 -29 -25 -29 l-25 0 0 -705 0 -705 25 0
c21 0 25 -5 25 -30 0 -27 3 -30 30 -30 27 0 30 -3 30 -30 0 -25 4 -30 24 -30
19 0 25 -6 28 -27 l3 -28 708 -2 707 -2 0 29 c0 25 4 30 25 30 21 0 25 5 25
30 0 27 3 30 30 30 27 0 30 3 30 29 0 26 4 30 30 33 l31 3 0 435 c-1 239 -1
555 -1 703 l0 267 -30 0 c-27 0 -30 3 -30 30 0 27 -3 30 -24 24 -22 -5 -25 -2
-28 28 -2 28 -7 34 -30 36 -24 3 -28 8 -28 33 l0 29 -710 0 -710 0 0 -30z
m1290 -165 c0 -33 2 -35 35 -35 32 0 35 -2 35 -30 0 -28 3 -30 35 -30 l35 0 0
-519 c0 -285 -3 -539 -6 -565 l-7 -46 -83 0 -84 0 0 -30 c0 -23 4 -30 20 -30
16 0 20 -7 20 -30 0 -16 5 -30 11 -30 5 0 7 -5 4 -10 -12 -20 6 -50 31 -50 22
0 24 -3 24 -55 l0 -55 -45 0 -45 0 0 55 c0 52 -1 55 -25 55 -21 0 -25 5 -25
30 0 23 -4 30 -20 30 -16 0 -20 7 -20 30 0 27 -3 30 -30 30 -27 0 -30 -3 -30
-30 0 -25 4 -30 25 -30 20 0 25 -5 25 -25 0 -20 -5 -25 -25 -25 -20 0 -25 5
-25 25 0 21 -5 25 -30 25 -27 0 -30 -3 -30 -30 0 -27 -3 -30 -30 -30 l-30 0 0
290 0 290 30 0 c25 0 30 -4 30 -25 0 -21 5 -25 30 -25 27 0 30 3 30 30 0 27
-3 30 -30 30 -25 0 -30 4 -30 24 0 19 6 25 28 28 l27 3 3 143 3 142 -31 0 -30
0 0 60 0 60 -30 0 c-27 0 -30 3 -30 30 0 27 -3 30 -29 30 -25 0 -30 4 -33 28
-2 15 -6 26 -10 25 -5 -2 -28 -3 -53 -3 -43 0 -45 -1 -45 -30 0 -30 1 -30 55
-30 52 0 55 -2 55 -24 0 -19 6 -25 28 -28 19 -2 27 -9 28 -23 1 -11 2 -37 3
-57 1 -33 4 -38 26 -38 l25 0 0 -140 0 -140 -25 0 c-20 0 -25 5 -25 25 0 21
-5 25 -29 25 l-29 0 -7 -115 -7 -115 -54 0 c-53 0 -54 0 -54 -30 l0 -30 -140
0 -140 0 0 -30 0 -30 145 0 145 0 0 30 c0 30 0 30 56 30 l56 0 -4 -200 -3
-200 -402 0 -403 0 0 30 c0 27 -3 30 -30 30 -27 0 -30 3 -30 30 0 28 -3 30
-35 30 l-35 0 0 590 0 590 30 0 c27 0 30 3 30 30 0 28 3 30 35 30 33 0 35 2
35 35 l0 35 580 0 580 0 0 -35z m60 -1310 c0 -14 -4 -25 -9 -25 -5 0 -8 11 -7
25 1 33 16 33 16 0z"/>
<path d="M700 1396 c0 -22 -5 -25 -42 -28 -38 -3 -43 -6 -43 -28 0 -18 -6 -26
-23 -28 -16 -3 -22 -10 -22 -28 0 -19 -5 -24 -25 -24 -21 0 -25 -5 -25 -30 0
-25 -4 -30 -24 -30 -21 0 -25 -6 -28 -32 -2 -28 -8 -34 -30 -36 l-28 -3 0
-145 0 -144 30 0 c30 0 30 -1 30 -55 0 -54 0 -55 30 -55 27 0 30 -3 30 -30 0
-25 4 -30 25 -30 21 0 25 -5 25 -30 l0 -30 60 0 c60 0 60 0 60 30 0 28 -1 29
-57 32 -54 3 -58 5 -58 28 0 20 -6 26 -27 28 -27 3 -28 6 -28 58 0 53 0 54
-30 54 l-30 0 0 145 0 145 30 0 c28 0 30 3 30 35 0 31 3 35 25 35 20 0 25 5
25 25 0 20 5 25 25 25 21 0 25 5 25 30 0 28 3 30 35 30 31 0 35 3 35 25 l0 25
145 0 145 0 0 30 0 30 -145 0 -145 0 0 -24z"/>
<path d="M810 1205 c0 -32 -2 -35 -30 -35 -25 0 -30 -4 -30 -25 0 -20 -5 -25
-24 -25 -25 0 -36 -16 -36 -55 0 -39 11 -55 36 -55 19 0 24 -5 24 -25 0 -21 5
-25 30 -25 29 0 30 -2 30 -45 l0 -45 -55 0 -55 0 0 -35 0 -35 55 0 55 0 0 -35
c0 -32 2 -35 30 -35 27 0 30 3 30 30 0 27 3 30 30 30 27 0 30 3 30 30 0 27 3
30 30 30 l31 0 -3 58 c-3 54 -4 57 -30 60 -22 3 -28 9 -28 28 0 20 -5 24 -30
24 -28 0 -30 2 -30 40 l0 39 58 3 c56 3 57 3 60 36 l3 32 -60 0 -61 0 0 35 c0
32 -2 35 -30 35 -28 0 -30 -3 -30 -35z m0 -145 c0 -36 -2 -40 -25 -40 -22 0
-25 4 -25 40 0 36 3 40 25 40 23 0 25 -4 25 -40z m110 -145 c0 -41 -2 -45 -25
-45 -23 0 -25 4 -25 45 0 41 2 45 25 45 23 0 25 -4 25 -45z"/>
<path d="M1280 700 c0 -27 3 -30 30 -30 27 0 30 -3 30 -30 0 -27 3 -30 30 -30
27 0 30 -3 30 -30 0 -27 3 -30 30 -30 27 0 30 -3 30 -30 0 -27 3 -30 30 -30
25 0 30 -4 30 -25 0 -21 5 -25 31 -25 27 0 30 3 27 28 -2 21 -9 28 -30 30 -22
3 -28 9 -28 28 0 20 -5 24 -30 24 -27 0 -30 3 -30 30 0 27 -3 30 -30 30 -27 0
-30 3 -30 30 0 27 -3 30 -30 30 -27 0 -30 3 -30 30 0 27 -3 30 -30 30 -27 0
-30 -3 -30 -30z"/>
</g>
</svg>
